<svg width="24" height="22" viewBox="0 0 24 22" fill="none" xmlns="http://www.w3.org/2000/svg">
<path d="M21.6 0H10.8C9.47997 0 8.39996 1.09091 8.39996 2.42425V12.1212H16.8L20.4 15.7576V12.1212H21.6C22.92 12.1212 24 11.0303 24 9.69699V2.42425C24 1.09091 22.92 0 21.6 0Z" fill="#216869"/>
<path d="M6.96002 13.5758V6.06064H2.40001C1.08 6.06064 0 7.15155 0 8.48489V15.7576C0 17.091 1.08 18.1819 2.40001 18.1819H3.60001V21.8182L7.20002 18.1819H13.2C14.52 18.1819 15.6 17.091 15.6 15.7576V13.5516C15.528 13.5758 15.432 13.5758 15.36 13.5758H6.96002Z" fill="#1FC36A"/>
</svg>
