<svg width="22" height="17" viewBox="0 0 22 17" fill="none" xmlns="http://www.w3.org/2000/svg">
<path d="M1.65 3.55C2.56127 3.55 3.3 2.81127 3.3 1.9C3.3 0.98873 2.56127 0.25 1.65 0.25C0.73873 0.25 0 0.98873 0 1.9C0 2.81127 0.73873 3.55 1.65 3.55Z" fill="#1FC36A"/>
<path d="M1.65 10.15C2.56127 10.15 3.3 9.41127 3.3 8.5C3.3 7.58873 2.56127 6.85 1.65 6.85C0.73873 6.85 0 7.58873 0 8.5C0 9.41127 0.73873 10.15 1.65 10.15Z" fill="#1FC36A"/>
<path d="M1.65 16.75C2.56127 16.75 3.3 16.0113 3.3 15.1C3.3 14.1887 2.56127 13.45 1.65 13.45C0.73873 13.45 0 14.1887 0 15.1C0 16.0113 0.73873 16.75 1.65 16.75Z" fill="#1FC36A"/>
<rect x="5.5" y="0.25" width="16.5" height="3.3" rx="1.65" fill="#216869"/>
<rect x="5.5" y="6.85" width="16.5" height="3.3" rx="1.65" fill="#216869"/>
<rect x="5.5" y="13.45" width="16.5" height="3.3" rx="1.65" fill="#216869"/>
</svg>
