<svg width="10" height="16" viewBox="0 0 10 16" fill="none" xmlns="http://www.w3.org/2000/svg">
<path d="M1.13 13.5898L6.71 7.99978L1.13 2.40978C0.943752 2.22241 0.839211 1.96896 0.839211 1.70478C0.839211 1.44059 0.943752 1.18714 1.13 0.999777C1.31737 0.813526 1.57082 0.708984 1.835 0.708984C2.09919 0.708984 2.35264 0.813526 2.54 0.999777L8.9 7.35978C9.06855 7.53014 9.16309 7.76012 9.16309 7.99978C9.16309 8.23943 9.06855 8.46941 8.9 8.63978L2.54 14.9998C2.35264 15.186 2.09919 15.2906 1.835 15.2906C1.57082 15.2906 1.31737 15.186 1.13 14.9998C0.943752 14.8124 0.839211 14.559 0.839211 14.2948C0.839211 14.0306 0.943752 13.7771 1.13 13.5898Z" fill="white"/>
</svg>
