<svg width="20" height="18" viewBox="0 0 20 18" fill="none" xmlns="http://www.w3.org/2000/svg">
    <path fill-rule="evenodd" clip-rule="evenodd" d="M15.198 15.497H4.802L3.247 8.497H16.753L15.198 15.497ZM20 6.497H16.58L12.868 0L11.132 0.993L14.277 6.497H5.722L8.868 0.993L7.132 0L3.42 6.497H0V8.497H1.198L3.023 16.714C3.126 17.171 3.531 17.497 4 17.497H16C16.2275 17.497 16.4482 17.4194 16.6256 17.277C16.803 17.1347 16.9266 16.9361 16.976 16.714L18.802 8.497H20V6.497Z" fill="#216869"/>
    <path fill-rule="evenodd" clip-rule="evenodd" d="M9 14.4971H11V9.49707H9V14.4971ZM12 14.4971H14V9.49707H12V14.4971ZM6 14.4971H8V9.49707H6V14.4971Z" fill="#1FC36A"/>
</svg>
