<svg width="16" height="16" viewBox="0 0 16 16" fill="none" xmlns="http://www.w3.org/2000/svg">
<g clip-path="url(#clip0)">
<path d="M8.33333 2.83334C8.33333 2.78914 8.35089 2.74674 8.38215 2.71549C8.4134 2.68423 8.4558 2.66667 8.5 2.66667H12C12.442 2.66667 12.866 2.84227 13.1785 3.15483C13.4911 3.46739 13.6667 3.89131 13.6667 4.33334V4.66667C13.6666 4.78243 13.6357 4.89607 13.5771 4.99591C13.5185 5.09574 13.4344 5.17816 13.3333 5.23467C13.2978 5.2553 13.2712 5.2885 13.2588 5.32773C13.2465 5.36696 13.2493 5.40939 13.2667 5.44667L14.1673 7.48467C14.1839 7.52167 14.2133 7.55147 14.25 7.56867L15.4373 8.11667C15.6026 8.19062 15.7433 8.3102 15.843 8.46135C15.9427 8.61251 15.9971 8.78897 16 8.97001V11.0513C15.9927 11.3096 15.8833 11.5544 15.6959 11.7322C15.5085 11.91 15.2583 12.0063 15 12H13.8267C13.7847 12 13.7443 11.9841 13.7135 11.9555C13.6827 11.927 13.6639 11.8879 13.6607 11.846C13.6217 11.3439 13.3947 10.8749 13.025 10.5329C12.6554 10.1908 12.1703 10.0008 11.6667 10.0008C11.163 10.0008 10.6779 10.1908 10.3083 10.5329C9.93864 10.8749 9.71165 11.3439 9.67267 11.846C9.66933 11.8878 9.65041 11.9268 9.61967 11.9553C9.58893 11.9839 9.5486 11.9998 9.50667 12H8.5C8.4558 12 8.4134 11.9824 8.38215 11.9512C8.35089 11.9199 8.33333 11.8775 8.33333 11.8333V2.83334ZM9.83333 5.33334C9.78913 5.33334 9.74674 5.3509 9.71548 5.38215C9.68423 5.41341 9.66667 5.4558 9.66667 5.50001V7.16667C9.66667 7.21087 9.68423 7.25327 9.71548 7.28452C9.74674 7.31578 9.78913 7.33334 9.83333 7.33334H12.384C12.4118 7.33325 12.4391 7.32625 12.4635 7.31297C12.4879 7.29969 12.5086 7.28054 12.5237 7.25726C12.5389 7.23397 12.548 7.20728 12.5503 7.1796C12.5525 7.15191 12.5478 7.1241 12.5367 7.09867L11.796 5.43201C11.7827 5.40265 11.7612 5.37774 11.7342 5.36024C11.7071 5.34275 11.6756 5.33341 11.6433 5.33334H9.83333Z" fill="#303D4E"/>
<path d="M2.01166e-05 3.66667C2.01166e-05 3.40146 0.105377 3.1471 0.292914 2.95956C0.48045 2.77203 0.734804 2.66667 1.00002 2.66667H7.50002C7.54422 2.66667 7.58662 2.68423 7.61787 2.71549C7.64913 2.74674 7.66669 2.78914 7.66669 2.83334V11.8333C7.66669 11.8775 7.64913 11.9199 7.61787 11.9512C7.58662 11.9824 7.54422 12 7.50002 12H5.16002C5.11804 12 5.07763 11.9841 5.04685 11.9555C5.01608 11.927 4.99721 11.8879 4.99402 11.846C4.95504 11.3439 4.72805 10.8749 4.3584 10.5329C3.98875 10.1908 3.50366 10.0008 3.00002 10.0008C2.49638 10.0008 2.01129 10.1908 1.64164 10.5329C1.27199 10.8749 1.045 11.3439 1.00602 11.846C1.00268 11.8878 0.983766 11.9268 0.953024 11.9553C0.922283 11.9839 0.881953 11.9998 0.84002 12H0.333353C0.244948 12 0.160163 11.9649 0.0976509 11.9024C0.0351388 11.8399 2.01166e-05 11.7551 2.01166e-05 11.6667V3.66667Z" fill="#303D4E"/>
<path d="M11.6667 13.3333C10.9303 13.3333 10.3333 12.7364 10.3333 12C10.3333 11.2636 10.9303 10.6667 11.6667 10.6667C12.403 10.6667 13 11.2636 13 12C13 12.7364 12.403 13.3333 11.6667 13.3333Z" fill="#303D4E"/>
<path d="M2.99998 13.3333C2.2636 13.3333 1.66665 12.7364 1.66665 12C1.66665 11.2636 2.2636 10.6667 2.99998 10.6667C3.73636 10.6667 4.33331 11.2636 4.33331 12C4.33331 12.7364 3.73636 13.3333 2.99998 13.3333Z" fill="#303D4E"/>
</g>
<defs>
<clipPath id="clip0">
<rect width="16" height="16" fill="white" transform="matrix(-1 0 0 1 16 0)"/>
</clipPath>
</defs>
</svg>
