<svg width="25" height="25" viewBox="0 0 25 25" fill="none" xmlns="http://www.w3.org/2000/svg">
<path d="M0.75 12.5668C0.75 19.0691 6.06446 24.3835 12.5668 24.3835C19.1181 24.3835 24.4345 19.0704 24.3835 12.566C24.3831 6.06403 19.0688 0.75 12.5668 0.75C6.06446 0.75 0.75 6.06445 0.75 12.5668ZM2.51275 12.5163C2.51275 6.99642 6.99803 2.46224 12.5668 2.46224C18.1355 2.46224 22.6208 6.99642 22.6208 12.5163C22.6208 18.0353 18.0858 22.5703 12.5668 22.5703C7.04774 22.5703 2.51275 18.0353 2.51275 12.5163Z" fill="#216869" stroke="#216869" stroke-width="0.5"/>
<path d="M16.0267 18.6532L16.2035 18.83L16.3803 18.6532L17.34 17.6935L17.5168 17.5167L17.34 17.34L13.5239 13.5239V6.35404V6.10404H13.2739H11.9102H11.6602V6.35404V14.1831V14.2866L11.7334 14.3599L16.0267 18.6532Z" fill="#1FC36A" stroke="#1FC36A" stroke-width="0.5"/>
</svg>
