<svg width="218" height="41" viewBox="0 0 218 41" fill="none" xmlns="http://www.w3.org/2000/svg">
<path d="M10.7903 30.7002H24.5067V40.1054H0V2.83932H10.9732V30.7002H10.7903ZM56.5117 25.3764V28.0383H34.5654C34.7483 29.8129 35.4799 30.8776 36.3943 31.7649C37.4916 32.6522 38.7718 33.0071 40.4178 33.0071C41.698 33.0071 42.7953 33.0071 43.7097 32.2973C44.5899 31.9042 45.3471 31.2919 45.9044 30.5227H55.9631C55.0088 33.6113 53.012 36.2988 50.2936 38.1534C47.3995 40.1007 43.938 41.0958 40.4178 40.9927C37.4916 40.9927 34.7483 40.4604 32.1879 39.2181C29.7942 37.8693 27.8319 35.9038 26.5185 33.5395C25.0844 31.1725 24.3268 28.4771 24.3238 25.7314C24.3238 21.2949 25.9698 17.5683 28.896 14.729C32.005 11.8897 36.2114 10.2925 40.4178 10.47C42.7953 10.47 44.9899 10.8249 47.0017 11.5347C50.6594 12.9544 53.9513 15.7937 55.4144 19.5203C56.3289 21.2949 56.6946 23.4244 56.6946 25.5539L56.5117 25.3764ZM40.4178 18.2781C38.9547 18.2781 37.6745 18.4556 36.7601 19.3429C35.6628 20.0527 34.9312 21.1175 34.5654 22.5371H46.6359C45.7215 19.6978 43.7097 18.1007 40.4178 18.1007V18.2781ZM82.8473 11.1798H90.5285V40.1054H82.6644L81.75 37.9759C79.2198 39.97 76.0479 41.0378 72.7886 40.9927C69.8624 40.9927 67.302 40.4604 64.7416 39.2181C62.3906 37.8735 60.4864 35.9027 59.255 33.5395C57.9748 31.2325 57.4262 28.5707 57.4262 25.7314C57.4262 21.2949 58.7064 17.5683 61.6326 14.729C63.0902 13.3128 64.8333 12.2036 66.7529 11.4708C68.6725 10.7379 70.7272 10.3973 72.7886 10.47C76.4463 10.47 79.3725 11.5347 81.9329 13.4868L82.8473 11.3573V11.1798ZM69.4966 30.5227C70.594 31.7649 72.2399 32.2973 74.2517 32.2973C76.0805 32.2973 77.7265 31.7649 79.0067 30.5227C80.104 29.2805 80.8356 27.8609 80.8356 25.9088C80.8867 25.0487 80.7529 24.1876 80.4425 23.3803C80.1322 22.5731 79.6522 21.8373 79.033 21.2198C78.4137 20.6023 77.6689 20.1165 76.8458 19.7934C76.0226 19.4703 75.1392 19.3168 74.2517 19.3429C72.4228 19.3429 70.594 20.0527 69.4966 21.1175C68.2164 22.5371 67.6678 23.9568 67.6678 25.9088C67.6678 27.6834 68.2164 29.458 69.4966 30.5227ZM114.487 11.8897V19.5203H107.903V40.1054H97.6611V19.5203H92.7232V11.8897H97.6611V9.05034C97.6611 6.21102 98.5755 3.90407 100.221 2.30695C101.867 0.709831 104.245 0 107.354 0H114.487V7.45322H109.732C109 7.45322 108.451 7.80814 107.903 8.16305C107.537 8.51797 107.354 9.05034 107.354 9.93763V11.7122H114.304L114.487 11.8897ZM149.784 11.3573H160.208L150.881 40.1054H142.651L136.799 27.151L130.946 40.1054H122.716L113.023 11.3573H123.814L128.203 26.4412L135.336 11.7122H138.079L145.394 26.7961L149.784 11.5347V11.3573ZM191.116 25.5539L190.933 28.0383H168.987C169.169 29.8129 169.901 30.8776 170.815 31.7649C171.913 32.6522 173.193 33.0071 174.839 33.0071C176.119 33.0071 177.216 33.0071 178.131 32.2973C179.011 31.9042 179.768 31.2919 180.326 30.5227H190.384C189.43 33.6113 187.433 36.2988 184.715 38.1534C181.821 40.1007 178.359 41.0958 174.839 40.9927C171.913 40.9927 169.169 40.4604 166.609 39.2181C164.215 37.8693 162.253 35.9038 160.94 33.5395C159.505 31.1725 158.748 28.4771 158.745 25.7314C158.745 21.2949 160.391 17.5683 163.317 14.729C166.426 11.8897 170.633 10.2925 174.839 10.47C177.216 10.47 179.411 10.8249 181.423 11.5347C185.081 12.9544 188.372 15.7937 189.836 19.5203C190.75 21.2949 191.116 23.4244 191.116 25.5539ZM174.839 18.1007C173.376 18.1007 172.096 18.4556 171.181 19.3429C170.084 20.0527 169.352 21.1175 168.987 22.5371H181.057C180.143 19.6978 178.131 18.1007 174.839 18.1007ZM193.493 40.1054V1.06475H203.552V40.1054H193.493ZM207.758 40.1054V1.06475H218V40.1054H207.758Z" fill="#4DE3AD"/>
</svg>
