<svg width="267" height="267" viewBox="0 0 267 267" fill="none" xmlns="http://www.w3.org/2000/svg">
<path d="M80.2544 227.264V182.908C79.7204 184.814 78.6623 186.042 76.6998 185.491C72.8718 184.42 74.7408 179.17 76.6197 175.472C70.0748 172.996 64.9721 172.235 64.9721 172.235C64.9721 172.235 62.2754 176.634 59.9658 183.239C64.004 184.173 69.2273 186.116 67.5887 189.74C66.0267 193.194 61.768 190.301 58.6441 187.474C58.1799 189.16 57.773 190.938 57.4491 192.78C49.9163 190.962 43.9523 191.062 43.9523 191.062C43.9523 191.062 43.7654 202.266 48.5847 213.356H48.5813C46.0551 215.376 45.6946 219.207 47.9973 221.663L58.1033 232.443L45.7713 228.609C42.5871 227.618 39.3564 229.997 39.3564 233.331C39.3564 236.061 41.5695 238.277 44.3028 238.277H91.2716C85.187 238.281 80.2544 233.348 80.2544 227.264Z" fill="#1EC36A"/>
<path d="M227.645 220.015C227.645 220.015 222.578 215.189 214.718 211.177L214.715 211.174C215.59 207.746 216.1 204.339 216.36 201.141C212.025 202.907 206.478 204.305 206.161 200.107C205.827 195.701 212.019 195.658 216.591 196.215C216.688 188.442 215.543 182.825 215.543 182.825C215.543 182.825 209.926 181.68 202.153 181.777C202.71 186.349 202.667 192.54 198.261 192.206C194.063 191.886 195.461 186.343 197.227 182.007C193.886 182.281 190.321 182.818 186.74 183.766L186.76 186.416C189.818 189.373 192.297 192.958 189.31 195.047C188.396 195.684 187.545 195.788 186.76 195.504L186.744 196.031L186.764 225.712C186.924 225.739 187.094 225.782 187.268 225.839C190.889 226.997 189.994 232.126 188.603 236.228C192.013 237.022 195.922 236.549 200.184 233.698C215.78 231.322 227.645 220.015 227.645 220.015Z" fill="#1EC36A"/>
<path d="M212.772 217.201C211.257 221.002 209.181 224.697 206.368 228.028C204.442 223.996 199.683 215.362 195.751 219.1C191.769 222.885 200.674 227.944 204.642 229.927" stroke="#494C51" stroke-width="3.22" stroke-miterlimit="10" stroke-linecap="round" stroke-linejoin="round"/>
<path d="M213.957 213.864C210.82 210.072 205.917 205.353 203.32 209.061C201.531 211.617 203.957 213.69 207.191 215.205" stroke="#494C51" stroke-width="3.22" stroke-miterlimit="10" stroke-linecap="round" stroke-linejoin="round"/>
<path d="M216.589 196.218C212.017 195.661 205.826 195.704 206.159 200.11C206.48 204.308 212.024 202.91 216.359 201.144C216.032 205.18 215.311 209.542 213.953 213.867" stroke="#494C51" stroke-width="3.22" stroke-miterlimit="10" stroke-linecap="round" stroke-linejoin="round"/>
<path d="M197.226 182.007C195.461 186.343 194.062 191.89 198.261 192.207C200.657 192.39 201.762 190.642 202.183 188.275" stroke="#494C51" stroke-width="3.22" stroke-miterlimit="10" stroke-linecap="round" stroke-linejoin="round"/>
<path d="M186.758 211.611L199.063 199.309" stroke="#494C51" stroke-width="3.22" stroke-miterlimit="10" stroke-linecap="round" stroke-linejoin="round"/>
<path d="M64.9607 172.118C64.9607 172.118 62.264 176.517 59.9545 183.122C63.993 184.056 69.2163 185.999 67.5773 189.623C66.0154 193.078 61.7567 190.184 58.6328 187.357" stroke="#494C51" stroke-width="3.22" stroke-miterlimit="10" stroke-linecap="round" stroke-linejoin="round"/>
<path d="M80.253 204.916L73.8252 191.132" stroke="#494C51" stroke-width="3.22" stroke-miterlimit="10" stroke-linecap="round" stroke-linejoin="round"/>
<path d="M44.1852 195.651C43.9083 192.761 43.9385 190.948 43.9385 190.948C43.9385 190.948 65.2649 190.588 78.201 203.521C78.9322 204.252 79.6196 205.009 80.2703 205.79" stroke="#494C51" stroke-width="3.22" stroke-miterlimit="10" stroke-linecap="round" stroke-linejoin="round"/>
<path d="M70.7942 234.085C65.828 232.223 60.7253 229.42 56.5132 225.208C51.8841 220.579 48.9605 214.878 47.1113 209.462" stroke="#494C51" stroke-width="3.22" stroke-miterlimit="10" stroke-linecap="round" stroke-linejoin="round"/>
<path d="M69.2334 216.243L80.254 227.264" stroke="#494C51" stroke-width="3.22" stroke-miterlimit="10" stroke-linecap="round" stroke-linejoin="round"/>
<path d="M54.5352 201.542L64.6041 211.611" stroke="#494C51" stroke-width="3.22" stroke-miterlimit="10" stroke-linecap="round" stroke-linejoin="round"/>
<path d="M175.74 238.164H91.2609C85.1768 238.164 80.2441 233.231 80.2441 227.147V50.8468C80.2441 44.7627 85.1768 39.8297 91.2609 39.8297H175.737C181.821 39.8297 186.753 44.7627 186.753 50.8468V227.144C186.757 233.231 181.824 238.164 175.74 238.164Z" fill="#DFE5E7"/>
<path d="M175.739 234.489H91.2606C87.2022 234.489 83.915 231.202 83.915 227.143V58.1927C83.915 54.1343 87.2022 50.8468 91.2606 50.8468H175.736C179.795 50.8468 183.082 54.1343 183.082 58.1927V227.143C183.085 231.202 179.795 234.489 175.739 234.489Z" fill="white"/>
<path d="M144.94 170.887L133.76 178.102L122.696 171.738L121.077 173.69L132.748 234.489H134.778L146.812 172.565L144.94 170.887Z" fill="#DFE5E7"/>
<path d="M136.374 188.278L139.174 182.808L133.76 178.102L128.924 183.382L132.025 188.278L127.209 205.62L132.749 234.489H134.778L140.388 205.62L136.374 188.278Z" fill="#5C4AE4"/>
<path d="M151.503 116.292C151.503 116.292 156.419 123.28 154.016 136.42C153.188 136.58 152.424 136.951 151.773 137.485C151.994 126.311 147.131 122.85 147.131 122.85C146.627 123.254 146.073 123.641 145.469 124.012C132.75 131.791 118.686 121.692 118.686 121.692C118.686 121.692 113.896 127.92 114.697 137.642C113.95 137.325 113.129 137.151 112.264 137.151C112.264 137.151 111.396 131.444 111.396 125.26C111.396 119.075 113.299 110.321 123.845 107.404C134.425 104.477 140.229 111.669 150.428 104.984C150.428 104.984 153.055 110.605 151.503 116.292Z" fill="#494C51"/>
<path d="M115.725 39.8297H157.43" stroke="#494C51" stroke-width="3.22" stroke-miterlimit="10" stroke-linecap="round" stroke-linejoin="round"/>
<path d="M97.5957 238.164H91.2609C85.1768 238.164 80.2441 233.231 80.2441 227.147V90.9036" stroke="#494C51" stroke-width="3.22" stroke-miterlimit="10" stroke-linecap="round" stroke-linejoin="round"/>
<path d="M186.757 161.395V227.143C186.757 233.228 181.824 238.16 175.74 238.16H117.551" stroke="#494C51" stroke-width="3.22" stroke-miterlimit="10" stroke-linecap="round" stroke-linejoin="round"/>
<path d="M186.758 72.1399V136.632" stroke="#494C51" stroke-width="3.22" stroke-miterlimit="10" stroke-linecap="round" stroke-linejoin="round"/>
<path d="M83.915 129.201V90.9036" stroke="#494C51" stroke-width="3.22" stroke-miterlimit="10" stroke-linecap="round" stroke-linejoin="round"/>
<path d="M83.915 227.144V168.247" stroke="#494C51" stroke-width="3.22" stroke-miterlimit="10" stroke-linecap="round" stroke-linejoin="round"/>
<path d="M161.792 234.489H91.2606C87.2022 234.489 83.915 231.202 83.915 227.144" stroke="#494C51" stroke-width="3.22" stroke-miterlimit="10" stroke-linecap="round" stroke-linejoin="round"/>
<path d="M183.086 161.395V227.144" stroke="#494C51" stroke-width="3.22" stroke-miterlimit="10" stroke-linecap="round" stroke-linejoin="round"/>
<path d="M183.086 101.48V136.632" stroke="#494C51" stroke-width="3.22" stroke-miterlimit="10" stroke-linecap="round" stroke-linejoin="round"/>
<path d="M130.861 166.371C131.773 166.541 132.737 166.631 133.762 166.631C150.333 166.631 151.3 146.903 151.3 146.903" stroke="#494C51" stroke-width="3.22" stroke-miterlimit="10" stroke-linecap="round" stroke-linejoin="round"/>
<path d="M116.218 148.238C116.218 148.238 118.294 161.021 127.415 165.273" stroke="#494C51" stroke-width="3.22" stroke-miterlimit="10" stroke-linecap="round" stroke-linejoin="round"/>
<path d="M116.218 148.238C115.14 149.119 113.762 149.65 112.26 149.65C108.809 149.65 106.009 146.853 106.009 143.399C106.009 139.945 108.805 137.148 112.26 137.148C113.124 137.148 113.945 137.322 114.693 137.639" stroke="#494C51" stroke-width="3.22" stroke-miterlimit="10" stroke-linecap="round" stroke-linejoin="round"/>
<path d="M151.77 137.485C152.657 136.761 153.745 136.334 154.927 136.334C157.901 136.334 160.314 139.054 160.314 142.411C160.314 145.769 157.901 148.489 154.927 148.489C153.528 148.489 152.257 147.888 151.299 146.903" stroke="#494C51" stroke-width="3.22" stroke-miterlimit="10" stroke-linecap="round" stroke-linejoin="round"/>
<path d="M112.264 137.151C112.264 137.151 111.396 131.444 111.396 125.26C111.396 119.075 113.299 110.321 123.845 107.404C134.425 104.477 140.229 111.669 150.428 104.984C150.428 104.984 156.236 117.423 145.466 124.012C132.747 131.791 118.682 121.692 118.682 121.692C118.682 121.692 113.893 127.92 114.694 137.642" stroke="#494C51" stroke-width="3.22" stroke-miterlimit="10" stroke-linecap="round" stroke-linejoin="round"/>
<path d="M151.502 116.292C151.502 116.292 156.418 123.28 154.015 136.42" stroke="#494C51" stroke-width="3.22" stroke-miterlimit="10" stroke-linecap="round" stroke-linejoin="round"/>
<path d="M147.128 122.85C147.128 122.85 151.994 126.311 151.77 137.485" stroke="#494C51" stroke-width="3.22" stroke-miterlimit="10" stroke-linecap="round" stroke-linejoin="round"/>
<path d="M113.895 140.996C111.876 139.151 107.884 140.595 109.133 144.888" stroke="#494C51" stroke-width="3.22" stroke-miterlimit="10" stroke-linecap="round" stroke-linejoin="round"/>
<path d="M152.497 141.07C153.769 138.974 157.921 139.484 157.36 143.399" stroke="#494C51" stroke-width="3.22" stroke-miterlimit="10" stroke-linecap="round" stroke-linejoin="round"/>
<path d="M124.992 141.974C125.967 141.974 126.757 141.184 126.757 140.208C126.757 139.233 125.967 138.443 124.992 138.443C124.017 138.443 123.227 139.233 123.227 140.208C123.227 141.184 124.017 141.974 124.992 141.974Z" fill="#494C51"/>
<path d="M141.249 146.192C144.555 146.192 147.234 143.513 147.234 140.208C147.234 136.904 144.555 134.224 141.249 134.224C137.945 134.224 135.266 136.904 135.266 140.208C135.266 143.513 137.945 146.192 141.249 146.192Z" stroke="#494C51" stroke-width="3.22" stroke-miterlimit="10" stroke-linecap="round" stroke-linejoin="round"/>
<path d="M124.993 146.192C128.298 146.192 130.977 143.513 130.977 140.208C130.977 136.904 128.298 134.224 124.993 134.224C121.688 134.224 119.009 136.904 119.009 140.208C119.009 143.513 121.688 146.192 124.993 146.192Z" stroke="#494C51" stroke-width="3.22" stroke-miterlimit="10" stroke-linecap="round" stroke-linejoin="round"/>
<path d="M130.861 139.027C131.439 138.446 132.24 138.089 133.124 138.089C134.009 138.089 134.806 138.446 135.384 139.027" stroke="#494C51" stroke-width="3.22" stroke-miterlimit="10" stroke-linecap="round" stroke-linejoin="round"/>
<path d="M133.333 144.283C133.333 144.283 130.062 150.992 131.737 153.301C132.658 154.573 134.628 154.296 134.628 154.296" stroke="#494C51" stroke-width="3.22" stroke-miterlimit="10" stroke-linecap="round" stroke-linejoin="round"/>
<path d="M138.496 158.328C137.621 159.322 136.447 160.07 135.068 160.41C133.687 160.754 132.302 160.64 131.063 160.17" stroke="#494C51" stroke-width="3.22" stroke-miterlimit="10" stroke-linecap="round" stroke-linejoin="round"/>
<path d="M129.464 175.633L133.76 178.102L126.638 185.882L121.077 173.69L122.696 171.738L126.087 173.69" stroke="#494C51" stroke-width="3.22" stroke-miterlimit="10" stroke-linecap="round" stroke-linejoin="round"/>
<path d="M137 180.919L142.404 185.618L146.813 172.565L144.94 170.887L133.76 178.102" stroke="#494C51" stroke-width="3.22" stroke-miterlimit="10" stroke-linecap="round" stroke-linejoin="round"/>
<path d="M128.925 183.382L132.025 188.279H136.374L139.174 182.808" stroke="#494C51" stroke-width="3.22" stroke-miterlimit="10" stroke-linecap="round" stroke-linejoin="round"/>
<path d="M127.209 205.62L132.749 234.489" stroke="#494C51" stroke-width="3.22" stroke-miterlimit="10" stroke-linecap="round" stroke-linejoin="round"/>
<path d="M106.594 187.18L121.079 173.69" stroke="#494C51" stroke-width="3.22" stroke-miterlimit="10" stroke-linecap="round" stroke-linejoin="round"/>
<path d="M114.593 191.592L109.39 188.722" stroke="#494C51" stroke-width="3.22" stroke-miterlimit="10" stroke-linecap="round" stroke-linejoin="round"/>
<path d="M124.121 222.651L110.981 199.349" stroke="#494C51" stroke-width="3.22" stroke-miterlimit="10" stroke-linecap="round" stroke-linejoin="round"/>
<path d="M142.939 192.507L138.14 217.201" stroke="#494C51" stroke-width="3.22" stroke-miterlimit="10" stroke-linecap="round" stroke-linejoin="round"/>
<path d="M153.959 190.871L161.101 185.882L146.813 172.566" stroke="#494C51" stroke-width="3.22" stroke-miterlimit="10" stroke-linecap="round" stroke-linejoin="round"/>
<path d="M136.674 234.479L156.612 198.451L151.9 192.31" stroke="#494C51" stroke-width="3.22" stroke-miterlimit="10" stroke-linecap="round" stroke-linejoin="round"/>
<path d="M128.524 200.881L127.209 205.62" stroke="#494C51" stroke-width="3.22" stroke-miterlimit="10" stroke-linecap="round" stroke-linejoin="round"/>
<path d="M132.025 188.278L129.676 196.739" stroke="#494C51" stroke-width="3.22" stroke-miterlimit="10" stroke-linecap="round" stroke-linejoin="round"/>
<path d="M136.374 188.278L140.389 205.62" stroke="#494C51" stroke-width="3.22" stroke-miterlimit="10" stroke-linecap="round" stroke-linejoin="round"/>
<path d="M125.437 164.148L123.755 172.348" stroke="#494C51" stroke-width="3.22" stroke-miterlimit="10" stroke-linecap="round" stroke-linejoin="round"/>
<path d="M142.404 164.302C142.351 164.339 144.16 171.394 144.16 171.394" stroke="#494C51" stroke-width="3.22" stroke-miterlimit="10" stroke-linecap="round" stroke-linejoin="round"/>
<path d="M119.006 175.633C107.168 179.447 95.8667 183.042 89.699 191.279C88.628 192.707 87.5897 194.626 86.6621 196.823" stroke="#494C51" stroke-width="3.22" stroke-miterlimit="10" stroke-linecap="round" stroke-linejoin="round"/>
<path d="M153.089 175.236C163.685 178.867 173.932 184.761 178.928 191.392C180.637 193.662 182.001 197.867 183.083 202.867" stroke="#494C51" stroke-width="3.22" stroke-miterlimit="10" stroke-linecap="round" stroke-linejoin="round"/>
<path d="M134.434 209.471C135.021 211.824 135.338 214.338 135.338 216.954V220.969C135.338 224.026 132.862 226.503 129.805 226.503" stroke="#494C51" stroke-width="3.22" stroke-miterlimit="10" stroke-linecap="round" stroke-linejoin="round"/>
<path d="M105.298 226.5C102.241 226.5 99.7646 224.023 99.7646 220.966V216.951C99.7646 214.361 100.075 211.864 100.653 209.532" stroke="#494C51" stroke-width="3.22" stroke-miterlimit="10" stroke-linecap="round" stroke-linejoin="round"/>
<path d="M107.274 224.524H108.856C109.947 224.524 110.832 225.408 110.832 226.5C110.832 227.591 109.947 228.475 108.856 228.475H107.274C106.182 228.475 105.298 227.591 105.298 226.5C105.298 225.408 106.182 224.524 107.274 224.524Z" fill="#494C51"/>
<path d="M126.248 224.524H127.83C128.921 224.524 129.806 225.408 129.806 226.5C129.806 227.591 128.921 228.475 127.83 228.475H126.248C125.157 228.475 124.272 227.591 124.272 226.5C124.272 225.408 125.157 224.524 126.248 224.524Z" fill="#494C51"/>
<path d="M117.58 180.101V186.089" stroke="#494C51" stroke-width="3.22" stroke-miterlimit="10" stroke-linecap="round" stroke-linejoin="round"/>
<path d="M155.809 197.4V189.58" stroke="#494C51" stroke-width="3.22" stroke-miterlimit="10" stroke-linecap="round" stroke-linejoin="round"/>
<path d="M155.809 206.005V199.91" stroke="#494C51" stroke-width="3.22" stroke-miterlimit="10" stroke-linecap="round" stroke-linejoin="round"/>
<path d="M141.249 141.974C142.224 141.974 143.015 141.184 143.015 140.208C143.015 139.233 142.224 138.443 141.249 138.443C140.274 138.443 139.483 139.233 139.483 140.208C139.483 141.184 140.274 141.974 141.249 141.974Z" fill="#494C51"/>
<path d="M127.989 45.4301H139.01" stroke="#494C51" stroke-width="3.22" stroke-miterlimit="10" stroke-linecap="round" stroke-linejoin="round"/>
<path d="M122.115 47.1956C123.09 47.1956 123.881 46.4049 123.881 45.43C123.881 44.4547 123.09 43.6644 122.115 43.6644C121.14 43.6644 120.35 44.4547 120.35 45.43C120.35 46.4049 121.14 47.1956 122.115 47.1956Z" fill="#494C51"/>
<path d="M135.698 207.202C132.921 198.274 126.624 192.27 119.354 191.409L119.375 187.891C119.381 186.9 118.58 186.092 117.589 186.086C117.586 186.086 117.582 186.086 117.579 186.086C116.591 186.086 115.79 186.883 115.783 187.871L115.763 191.405C108.484 192.257 102.18 198.264 99.3996 207.199C99.1059 208.146 99.6334 209.151 100.581 209.445C101.526 209.738 102.533 209.211 102.827 208.263C105.354 200.136 111.131 194.887 117.546 194.887C123.96 194.887 129.738 200.136 132.264 208.263C132.504 209.031 133.212 209.525 133.98 209.525C134.157 209.525 134.337 209.498 134.514 209.445C135.465 209.158 135.995 208.15 135.698 207.202Z" fill="#DFE5E7"/>
<path d="M117.549 194.893C123.964 194.893 129.741 200.143 132.267 208.27C132.508 209.038 133.215 209.532 133.983 209.532C134.16 209.532 134.34 209.505 134.517 209.452C135.465 209.158 135.992 208.15 135.698 207.202C132.921 198.274 126.624 192.27 119.354 191.409L119.375 187.891C119.381 186.9 118.58 186.092 117.589 186.086C117.586 186.086 117.582 186.086 117.579 186.086C116.591 186.086 115.79 186.883 115.783 187.871L115.763 191.405C108.484 192.257 102.18 198.264 99.3996 207.198C99.1059 208.146 99.6334 209.151 100.581 209.445C101.526 209.738 102.533 209.211 102.827 208.263C103.114 207.342 103.441 206.458 103.809 205.613" stroke="#494C51" stroke-width="3.22" stroke-miterlimit="10" stroke-linecap="round" stroke-linejoin="round"/>
<path d="M155.807 211.989C159.112 211.989 161.791 209.31 161.791 206.005C161.791 202.7 159.112 200.021 155.807 200.021C152.502 200.021 149.822 202.7 149.822 206.005C149.822 209.31 152.502 211.989 155.807 211.989Z" fill="#DFE5E7"/>
<path d="M161.791 206.005C161.791 209.309 159.111 211.989 155.807 211.989C152.503 211.989 149.822 209.309 149.822 206.005C149.822 202.701 152.503 200.021 155.807 200.021C156.898 200.021 157.919 200.311 158.8 200.822" stroke="#494C51" stroke-width="3.22" stroke-miterlimit="10" stroke-linecap="round" stroke-linejoin="round"/>
<path d="M152.904 206.739C152.844 206.505 152.814 206.258 152.814 206.005C152.814 204.353 154.153 203.011 155.808 203.011C157.46 203.011 158.802 204.349 158.802 206.005C158.802 207.657 157.463 208.998 155.808 208.998C155.361 208.998 154.934 208.899 154.55 208.722" stroke="#494C51" stroke-width="3.22" stroke-miterlimit="10" stroke-linecap="round" stroke-linejoin="round"/>
<path d="M58.0935 232.333L47.9876 221.553C45.6845 219.097 46.0449 215.265 48.5715 213.246" stroke="#494C51" stroke-width="3.22" stroke-miterlimit="10" stroke-linecap="round" stroke-linejoin="round"/>
<path d="M63.4558 238.164H44.2921C41.5618 238.164 39.3457 235.951 39.3457 233.218" stroke="#494C51" stroke-width="3.22" stroke-miterlimit="10" stroke-linecap="round" stroke-linejoin="round"/>
<path d="M219.448 213.864C224.551 217.068 227.648 220.015 227.648 220.015C227.648 220.015 215.78 231.322 200.184 233.705" stroke="#494C51" stroke-width="3.22" stroke-miterlimit="10" stroke-linecap="round" stroke-linejoin="round"/>
<path d="M83.915 61.5203V58.1927C83.915 54.1343 87.2022 50.8468 91.2606 50.8468H152.077" stroke="#494C51" stroke-width="3.22" stroke-miterlimit="10" stroke-linecap="round" stroke-linejoin="round"/>
<path d="M110.013 39.8297H104.453" stroke="#494C51" stroke-width="3.22" stroke-miterlimit="10" stroke-linecap="round" stroke-linejoin="round"/>
<path d="M112.664 238.164H108.065" stroke="#494C51" stroke-width="3.22" stroke-miterlimit="10" stroke-linecap="round" stroke-linejoin="round"/>
<path d="M207.326 161.395H160.313L168.394 153.315V141.772C168.394 138.931 170.696 136.629 173.537 136.629H207.326C210.166 136.629 212.469 138.931 212.469 141.772V156.252C212.469 159.092 210.166 161.395 207.326 161.395Z" fill="white"/>
<path d="M168.394 149.303V141.772C168.394 138.931 170.696 136.629 173.537 136.629H207.326C210.166 136.629 212.469 138.931 212.469 141.772V156.252C212.469 159.092 210.166 161.395 207.326 161.395H160.313L168.394 153.315" stroke="#494C51" stroke-width="3.22" stroke-miterlimit="10" stroke-linecap="round" stroke-linejoin="round"/>
<path d="M139.011 90.9033H58.2064C56.1772 90.9033 54.5352 89.2578 54.5352 87.232V65.1946C54.5352 63.1654 56.1806 61.5234 58.2064 61.5234H139.011C141.04 61.5234 142.682 63.1685 142.682 65.1946V87.232C142.682 89.2578 141.04 90.9033 139.011 90.9033Z" fill="white"/>
<path d="M54.5352 65.1914C54.5352 63.1622 56.1806 61.5202 58.2064 61.5202H139.011C141.04 61.5202 142.682 63.1653 142.682 65.1914V87.2289C142.682 89.2581 141.036 90.9001 139.011 90.9001" stroke="#494C51" stroke-width="3.22" stroke-miterlimit="10" stroke-linecap="round" stroke-linejoin="round"/>
<path d="M127.99 90.9036H58.2064C56.1772 90.9036 54.5352 89.2581 54.5352 87.2323V68.4622" stroke="#494C51" stroke-width="3.22" stroke-miterlimit="10" stroke-linecap="round" stroke-linejoin="round"/>
<path d="M136.55 69.4466C136.944 70.1408 137.171 70.9453 137.171 71.8027C137.171 74.4395 135.032 76.579 132.395 76.579C129.759 76.579 127.619 74.4395 127.619 71.8027C127.619 69.1663 129.759 67.0269 132.395 67.0269C133.043 67.0269 133.66 67.1569 134.224 67.3907" stroke="#494C51" stroke-width="3.22" stroke-miterlimit="10" stroke-linecap="round" stroke-linejoin="round"/>
<path d="M132.399 69.6001V71.8028L133.568 72.9712" stroke="#494C51" stroke-width="3.22" stroke-miterlimit="10" stroke-linecap="round" stroke-linejoin="round"/>
<path d="M78.7754 70.3343H119.176" stroke="#494C51" stroke-width="3.22" stroke-miterlimit="10" stroke-linecap="round" stroke-linejoin="round"/>
<path d="M78.7754 76.2118H119.176" stroke="#494C51" stroke-width="3.22" stroke-miterlimit="10" stroke-linecap="round" stroke-linejoin="round"/>
<path d="M78.7754 82.0891H97.1381" stroke="#494C51" stroke-width="3.22" stroke-miterlimit="10" stroke-linecap="round" stroke-linejoin="round"/>
<path d="M66.2859 67.2573C63.2421 67.2573 60.7754 69.7236 60.7754 72.7674C60.7754 77.5867 66.2859 85.163 66.2859 85.163C66.2859 85.163 71.796 77.5867 71.796 72.7674C71.796 69.727 69.3297 67.2573 66.2859 67.2573ZM66.2859 75.3405C64.8674 75.3405 63.7158 74.1893 63.7158 72.7708C63.7158 71.3523 64.8674 70.2007 66.2859 70.2007C67.704 70.2007 68.8556 71.3523 68.8556 72.7708C68.8556 74.1893 67.7075 75.3405 66.2859 75.3405Z" fill="#5C4AE4"/>
<path d="M68.7255 81.3346C67.4607 83.5476 66.2859 85.166 66.2859 85.166C66.2859 85.166 60.7754 77.5901 60.7754 72.7708C60.7754 69.727 63.2421 67.2607 66.2859 67.2607C67.0468 67.2607 67.7708 67.414 68.4318 67.6943" stroke="#494C51" stroke-width="3.22" stroke-miterlimit="10" stroke-linecap="round" stroke-linejoin="round"/>
<path d="M179.468 77.5704C192.641 69.727 201.506 55.0722 201.506 38.2878C201.506 36.7559 201.432 35.244 201.285 33.7521C201.285 33.7521 189.818 32.4972 179.468 24.6808C169.119 32.4972 157.651 33.7521 157.651 33.7521C157.508 35.244 157.431 36.7559 157.431 38.2878C157.431 55.0722 166.295 69.727 179.468 77.5704Z" fill="#1EC36A"/>
<path d="M185.202 28.3554C183.306 27.3308 181.367 26.1159 179.468 24.6808C169.119 32.4972 157.651 33.7521 157.651 33.7521C157.508 35.244 157.431 36.7559 157.431 38.2878C157.431 55.0756 166.295 69.7305 179.468 77.5703C183.997 74.8736 188.016 71.376 191.34 67.2573" stroke="#494C51" stroke-width="3.22" stroke-miterlimit="10" stroke-linecap="round" stroke-linejoin="round"/>
<path d="M177.231 59.4144L168.507 50.69L172.245 46.9486L177.231 51.935L188.452 40.7141L192.189 44.4555L177.231 59.4144Z" fill="white"/>
<path d="M192.19 44.4555L177.231 59.4143L170.129 52.3121" stroke="#494C51" stroke-width="3.22" stroke-miterlimit="10" stroke-linecap="round" stroke-linejoin="round"/>
<path d="M41.8312 152.072C53.2565 152.072 62.5183 142.81 62.5183 131.385C62.5183 119.959 53.2565 110.697 41.8312 110.697C30.4056 110.697 21.1436 119.959 21.1436 131.385C21.1436 142.81 30.4056 152.072 41.8312 152.072Z" fill="#DFE5E7"/>
<path d="M41.8311 147.935C50.9716 147.935 58.3817 140.526 58.3817 131.385C58.3817 122.244 50.9716 114.834 41.8311 114.834C32.6903 114.834 25.2803 122.244 25.2803 131.385C25.2803 140.526 32.6903 147.935 41.8311 147.935Z" fill="white"/>
<path d="M47.6842 137.237L43.2959 132.848" stroke="#494C51" stroke-width="3.37091" stroke-miterlimit="10" stroke-linecap="round" stroke-linejoin="round"/>
<path d="M60.947 123.46C61.9605 125.903 62.5193 128.579 62.5193 131.388C62.5193 142.813 53.257 152.076 41.8321 152.076C30.4069 152.076 21.1445 142.813 21.1445 131.388C21.1445 119.963 30.4069 110.7 41.8321 110.7C46.6572 110.7 51.0978 112.353 54.6161 115.124" stroke="#494C51" stroke-width="3.37091" stroke-miterlimit="10" stroke-linecap="round" stroke-linejoin="round"/>
<path d="M25.8044 135.532C25.462 134.208 25.2803 132.817 25.2803 131.385C25.2803 122.244 32.6909 114.834 41.8311 114.834C50.9709 114.834 58.3817 122.244 58.3817 131.385C58.3817 140.525 50.9709 147.935 41.8311 147.935C36.9534 147.935 32.5686 145.825 29.5394 142.467" stroke="#494C51" stroke-width="3.37091" stroke-miterlimit="10" stroke-linecap="round" stroke-linejoin="round"/>
<path d="M41.832 120.627V129.316" stroke="#494C51" stroke-width="3.37091" stroke-miterlimit="10" stroke-linecap="round" stroke-linejoin="round"/>
<path d="M41.8331 133.453C42.9755 133.453 43.9016 132.527 43.9016 131.385C43.9016 130.242 42.9755 129.316 41.8331 129.316C40.6908 129.316 39.7646 130.242 39.7646 131.385C39.7646 132.527 40.6908 133.453 41.8331 133.453Z" stroke="#494C51" stroke-width="3.37091" stroke-miterlimit="10" stroke-linecap="round" stroke-linejoin="round"/>
<path d="M177.247 149.869H179.099V151.201H175.79V145.925H177.272V149.869H177.247ZM183.421 149.116V149.493H180.457C180.482 149.744 180.581 149.895 180.704 150.02C180.852 150.146 181.025 150.196 181.248 150.196C181.42 150.196 181.568 150.196 181.692 150.096C181.811 150.04 181.913 149.953 181.988 149.844H183.347C183.218 150.282 182.948 150.662 182.581 150.925C182.19 151.2 181.723 151.341 181.248 151.326C180.852 151.326 180.482 151.251 180.136 151.075C179.813 150.884 179.548 150.606 179.371 150.271C179.177 149.937 179.075 149.555 179.074 149.166C179.074 148.538 179.297 148.01 179.692 147.608C180.112 147.207 180.68 146.98 181.248 147.006C181.568 147.006 181.865 147.056 182.137 147.156C182.63 147.357 183.075 147.759 183.273 148.287C183.396 148.538 183.445 148.84 183.445 149.141L183.421 149.116ZM181.248 148.111C181.05 148.111 180.877 148.136 180.754 148.262C180.605 148.362 180.507 148.513 180.457 148.714H182.087C181.963 148.312 181.692 148.086 181.248 148.086V148.111ZM186.977 147.106H188.014V151.201H186.952L186.829 150.9C186.487 151.182 186.058 151.333 185.618 151.326C185.223 151.326 184.878 151.251 184.532 151.075C184.214 150.885 183.957 150.606 183.791 150.271C183.618 149.945 183.544 149.568 183.544 149.166C183.544 148.538 183.717 148.01 184.112 147.608C184.309 147.408 184.544 147.251 184.804 147.147C185.063 147.043 185.34 146.995 185.618 147.006C186.112 147.006 186.507 147.156 186.853 147.432L186.977 147.131V147.106ZM185.174 149.844C185.322 150.02 185.544 150.096 185.816 150.096C186.063 150.096 186.285 150.02 186.458 149.844C186.606 149.668 186.705 149.467 186.705 149.191C186.712 149.07 186.694 148.947 186.652 148.833C186.61 148.719 186.545 148.615 186.462 148.528C186.378 148.44 186.277 148.371 186.166 148.325C186.055 148.28 185.936 148.258 185.816 148.262C185.569 148.262 185.322 148.362 185.174 148.513C185.001 148.714 184.927 148.915 184.927 149.191C184.927 149.443 185.001 149.694 185.174 149.844ZM191.249 147.207V148.287H190.36V151.201H188.977V148.287H188.31V147.207H188.977V146.805C188.977 146.403 189.1 146.076 189.323 145.85C189.545 145.624 189.866 145.523 190.286 145.523H191.249V146.578H190.607C190.508 146.578 190.434 146.629 190.36 146.679C190.311 146.729 190.286 146.805 190.286 146.93V147.181H191.224L191.249 147.207ZM196.015 147.131H197.423L196.163 151.201H195.052L194.261 149.367L193.472 151.201H192.36L191.051 147.131H192.508L193.101 149.267L194.064 147.181H194.435L195.422 149.317L196.015 147.156V147.131ZM201.596 149.141L201.571 149.493H198.608C198.633 149.744 198.731 149.895 198.855 150.02C199.003 150.146 199.176 150.196 199.398 150.196C199.571 150.196 199.719 150.196 199.843 150.096C199.962 150.04 200.064 149.953 200.139 149.844H201.497C201.368 150.282 201.099 150.662 200.732 150.925C200.341 151.2 199.873 151.341 199.398 151.326C199.003 151.326 198.633 151.251 198.287 151.075C197.964 150.884 197.699 150.606 197.522 150.271C197.328 149.937 197.226 149.555 197.225 149.166C197.225 148.538 197.447 148.01 197.842 147.608C198.262 147.207 198.83 146.98 199.398 147.006C199.719 147.006 200.016 147.056 200.287 147.156C200.781 147.357 201.226 147.759 201.423 148.287C201.547 148.538 201.596 148.84 201.596 149.141ZM199.398 148.086C199.201 148.086 199.028 148.136 198.904 148.262C198.756 148.362 198.657 148.513 198.608 148.714H200.238C200.114 148.312 199.843 148.086 199.398 148.086ZM201.917 151.201V145.674H203.275V151.201H201.917ZM203.843 151.201V145.674H205.226V151.201H203.843Z" fill="#494C51"/>
</svg>
