<svg width="818" height="136" viewBox="0 0 818 136" fill="none" xmlns="http://www.w3.org/2000/svg">
<path d="M255.844 59.1865H273.444L258.144 109.187H241.944L234.744 83.7865L227.544 109.187H211.344L196.044 59.1865H213.644L220.244 86.3865L227.744 59.1865H241.744L249.244 86.3865L255.844 59.1865Z" fill="black"/>
<path d="M309.929 57.7865C315.329 57.7865 319.729 59.6532 323.129 63.3865C326.596 67.0532 328.329 72.3532 328.329 79.2865V109.187H311.729V81.3865C311.729 78.7865 311.029 76.8199 309.629 75.4865C308.296 74.1532 306.496 73.4865 304.229 73.4865C301.629 73.4865 299.596 74.2865 298.129 75.8865C296.729 77.4199 296.029 79.6532 296.029 82.5865V109.187H279.429V39.1865H296.029V64.1865C299.029 59.9199 303.662 57.7865 309.929 57.7865Z" fill="black"/>
<path d="M352.042 90.2865C353.708 94.3532 357.442 96.3865 363.242 96.3865C366.842 96.3865 369.875 95.2199 372.342 92.8865L384.342 101.287C379.408 107.487 372.242 110.587 362.842 110.587C354.375 110.587 347.575 108.12 342.442 103.187C337.375 98.1865 334.842 91.8865 334.842 84.2865C334.842 76.7532 337.342 70.4532 342.342 65.3865C347.342 60.3199 353.708 57.7865 361.442 57.7865C368.908 57.7865 375.075 60.2865 379.942 65.2865C384.808 70.2865 387.242 76.5532 387.242 84.0865C387.242 86.2865 387.008 88.3532 386.542 90.2865H352.042ZM351.842 78.7865H371.042C369.708 74.1199 366.575 71.7865 361.642 71.7865C356.508 71.7865 353.242 74.1199 351.842 78.7865Z" fill="black"/>
<path d="M410.971 68.4865C411.904 65.2199 413.771 62.6865 416.571 60.8865C419.371 59.0865 422.504 58.1865 425.971 58.1865V76.5865C422.171 75.9865 418.704 76.6865 415.571 78.6865C412.504 80.6865 410.971 83.9532 410.971 88.4865V109.187H394.371V59.1865H410.971V68.4865Z" fill="black"/>
<path d="M445.792 90.2865C447.458 94.3532 451.192 96.3865 456.992 96.3865C460.592 96.3865 463.625 95.2199 466.092 92.8865L478.092 101.287C473.158 107.487 465.992 110.587 456.592 110.587C448.125 110.587 441.325 108.12 436.192 103.187C431.125 98.1865 428.592 91.8865 428.592 84.2865C428.592 76.7532 431.092 70.4532 436.092 65.3865C441.092 60.3199 447.458 57.7865 455.192 57.7865C462.658 57.7865 468.825 60.2865 473.692 65.2865C478.558 70.2865 480.992 76.5532 480.992 84.0865C480.992 86.2865 480.758 88.3532 480.292 90.2865H445.792ZM445.592 78.7865H464.792C463.458 74.1199 460.325 71.7865 455.392 71.7865C450.258 71.7865 446.992 74.1199 445.592 78.7865Z" fill="black"/>
<path d="M503.463 39.1865L495.063 70.5865H481.663L485.163 39.1865H503.463Z" fill="black"/>
<path d="M520.231 73.7865C520.231 74.7199 521.065 75.4865 522.731 76.0865C524.465 76.6865 526.531 77.2532 528.931 77.7865C531.398 78.3199 533.831 79.0865 536.231 80.0865C538.698 81.0199 540.765 82.6532 542.431 84.9865C544.165 87.3199 545.031 90.2532 545.031 93.7865C545.031 99.5199 542.898 103.753 538.631 106.487C534.365 109.22 529.298 110.587 523.431 110.587C512.231 110.587 504.765 106.62 501.031 98.6865L515.531 91.3865C516.798 95.0532 519.398 96.8865 523.331 96.8865C526.331 96.8865 527.831 95.9865 527.831 94.1865C527.831 93.2532 526.998 92.4865 525.331 91.8865C523.665 91.2865 521.631 90.6865 519.231 90.0865C516.831 89.4865 514.431 88.6865 512.031 87.6865C509.631 86.6865 507.598 85.0865 505.931 82.8865C504.265 80.6199 503.431 77.8532 503.431 74.5865C503.431 69.2532 505.398 65.1199 509.331 62.1865C513.265 59.2532 517.998 57.7865 523.531 57.7865C533.398 57.7865 540.265 61.6532 544.131 69.3865L530.131 75.6865C528.665 72.8199 526.598 71.3865 523.931 71.3865C521.465 71.3865 520.231 72.1865 520.231 73.7865Z" fill="black"/>
<path d="M630.649 59.1865H648.249L632.949 109.187H616.749L609.549 83.7865L602.349 109.187H586.149L570.849 59.1865H588.449L595.049 86.3865L602.549 59.1865H616.549L624.049 86.3865L630.649 59.1865Z" fill="black"/>
<path d="M666.69 90.2865C668.357 94.3532 672.09 96.3865 677.89 96.3865C681.49 96.3865 684.523 95.2199 686.99 92.8865L698.99 101.287C694.057 107.487 686.89 110.587 677.49 110.587C669.023 110.587 662.223 108.12 657.09 103.187C652.023 98.1865 649.49 91.8865 649.49 84.2865C649.49 76.7532 651.99 70.4532 656.99 65.3865C661.99 60.3199 668.357 57.7865 676.09 57.7865C683.557 57.7865 689.723 60.2865 694.59 65.2865C699.457 70.2865 701.89 76.5532 701.89 84.0865C701.89 86.2865 701.657 88.3532 701.19 90.2865H666.69ZM666.49 78.7865H685.69C684.357 74.1199 681.223 71.7865 676.29 71.7865C671.157 71.7865 667.89 74.1199 666.49 78.7865Z" fill="black"/>
<path d="M723.624 90.2865C725.29 94.3532 729.024 96.3865 734.824 96.3865C738.424 96.3865 741.457 95.2199 743.924 92.8865L755.924 101.287C750.99 107.487 743.824 110.587 734.424 110.587C725.957 110.587 719.157 108.12 714.024 103.187C708.957 98.1865 706.424 91.8865 706.424 84.2865C706.424 76.7532 708.924 70.4532 713.924 65.3865C718.924 60.3199 725.29 57.7865 733.024 57.7865C740.49 57.7865 746.657 60.2865 751.524 65.2865C756.39 70.2865 758.824 76.5532 758.824 84.0865C758.824 86.2865 758.59 88.3532 758.124 90.2865H723.624ZM723.424 78.7865H742.624C741.29 74.1199 738.157 71.7865 733.224 71.7865C728.09 71.7865 724.824 74.1199 723.424 78.7865Z" fill="black"/>
<path d="M801.057 39.1865H817.657V109.187H801.057V104.587C797.657 108.587 792.924 110.587 786.857 110.587C780.191 110.587 774.591 108.087 770.057 103.087C765.591 98.0199 763.357 91.7199 763.357 84.1865C763.357 76.6532 765.591 70.3865 770.057 65.3865C774.591 60.3199 780.191 57.7865 786.857 57.7865C792.924 57.7865 797.657 59.7865 801.057 63.7865V39.1865ZM782.957 92.0865C784.891 94.0865 787.424 95.0865 790.557 95.0865C793.691 95.0865 796.224 94.0865 798.157 92.0865C800.091 90.0865 801.057 87.4532 801.057 84.1865C801.057 80.9199 800.091 78.2865 798.157 76.2865C796.224 74.2865 793.691 73.2865 790.557 73.2865C787.424 73.2865 784.891 74.2865 782.957 76.2865C781.024 78.2865 780.057 80.9199 780.057 84.1865C780.057 87.4532 781.024 90.0865 782.957 92.0865Z" fill="black"/>
<path d="M57.3237 135.653H30.0754L-1.52588e-05 48.716H31.4191L57.3237 135.653Z" fill="black"/>
<path d="M113.767 135.653H86.5187L56.4433 48.716H87.8624L113.767 135.653Z" fill="black"/>
<path fill-rule="evenodd" clip-rule="evenodd" d="M87.1363 29.7349C90.4537 27.8862 91.9253 27.6869 96.4056 27.1691C97.2112 27.0761 99.0409 27.2288 99.8276 27.3206C109.889 28.6084 117.025 36.4642 117.025 46.8764C117.025 53.6647 115.582 56.3547 115.582 56.3547L86.3074 135.653H116.232L145.817 57.852C147.86 51.4751 148.346 45.6362 147.331 39.7076C145.034 14.2559 124.974 0 100.23 0C92.5616 0 86.4567 2.17963 80.2856 5.37813L87.1363 29.7349Z" fill="url(#paint0_linear)"/>
<path d="M30.168 135.653H57.4163L87.4917 48.716H56.0726L30.168 135.653Z" fill="url(#paint1_linear)"/>
<defs>
<linearGradient id="paint0_linear" x1="114.065" y1="0" x2="114.065" y2="135.755" gradientUnits="userSpaceOnUse">
<stop stop-color="#5050A2"/>
<stop offset="1" stop-color="#40B769"/>
</linearGradient>
<linearGradient id="paint1_linear" x1="58.8297" y1="135.653" x2="58.8297" y2="48.6505" gradientUnits="userSpaceOnUse">
<stop stop-color="#5050A2"/>
<stop offset="1" stop-color="#40B769"/>
</linearGradient>
</defs>
</svg>
