<svg width="16" height="16" viewBox="0 0 16 16" fill="none" xmlns="http://www.w3.org/2000/svg">
<path d="M7.66667 0C7.48986 0 7.32029 0.0702379 7.19526 0.195262C7.07024 0.320286 7 0.489856 7 0.666667C7 0.843478 7.07024 1.01305 7.19526 1.13807C7.32029 1.2631 7.48986 1.33333 7.66667 1.33333C9.52253 1.33545 11.3018 2.07363 12.6141 3.38592C13.9264 4.69822 14.6645 6.47747 14.6667 8.33333C14.6667 8.51014 14.7369 8.67971 14.8619 8.80474C14.987 8.92976 15.1565 9 15.3333 9C15.5101 9 15.6797 8.92976 15.8047 8.80474C15.9298 8.67971 16 8.51014 16 8.33333C15.9975 6.12395 15.1188 4.00577 13.5565 2.44351C11.9942 0.881237 9.87605 0.00247036 7.66667 0V0Z" fill="#303D4E"/>
<path d="M7.66667 2.66669C7.48986 2.66669 7.32029 2.73693 7.19526 2.86195C7.07024 2.98697 7 3.15654 7 3.33335C7 3.51016 7.07024 3.67973 7.19526 3.80476C7.32029 3.92978 7.48986 4.00002 7.66667 4.00002C8.8155 4.00143 9.91688 4.45843 10.7292 5.27078C11.5416 6.08313 11.9986 7.18452 12 8.33335C12 8.51016 12.0702 8.67973 12.1953 8.80476C12.3203 8.92978 12.4899 9.00002 12.6667 9.00002C12.8435 9.00002 13.013 8.92978 13.1381 8.80476C13.2631 8.67973 13.3333 8.51016 13.3333 8.33335C13.3316 6.831 12.734 5.39069 11.6717 4.32836C10.6093 3.26604 9.16902 2.66845 7.66667 2.66669Z" fill="#303D4E"/>
<path d="M9.50005 8.33333C9.50005 8.46594 9.55273 8.59312 9.6465 8.68689C9.74027 8.78065 9.86744 8.83333 10.0001 8.83333C10.1327 8.83333 10.2598 8.78065 10.3536 8.68689C10.4474 8.59312 10.5001 8.46594 10.5001 8.33333C10.4993 7.5821 10.2006 6.86184 9.66941 6.33064C9.13821 5.79944 8.41795 5.50071 7.66672 5.5C7.53411 5.5 7.40693 5.55268 7.31316 5.64645C7.2194 5.74022 7.16672 5.86739 7.16672 6C7.16672 6.13261 7.2194 6.25978 7.31316 6.35355C7.40693 6.44732 7.53411 6.5 7.66672 6.5C8.15284 6.50035 8.61895 6.69362 8.96269 7.03736C9.30643 7.3811 9.4997 7.84721 9.50005 8.33333Z" fill="#303D4E"/>
<path d="M10.3334 10.528C9.94373 10.1402 9.41641 9.92259 8.86672 9.92259C8.31703 9.92259 7.7897 10.1402 7.40005 10.528L6.84938 11.0793C6.42155 11.4358 6.10822 11.9105 5.94852 12.444C5.78881 12.9776 5.78981 13.5463 5.95138 14.0793C4.13946 13.3129 2.69747 11.8707 1.93138 10.0586C2.46416 10.2213 3.03309 10.2229 3.5668 10.0634C4.10051 9.90387 4.57523 9.59028 4.93138 9.16197L5.48605 8.60864C5.87378 8.21899 6.09144 7.69167 6.09144 7.14198C6.09144 6.59229 5.87378 6.06496 5.48605 5.67531L3.08938 3.28798C2.91553 3.11441 2.70143 2.98655 2.46618 2.91578C2.23093 2.84501 1.98183 2.83353 1.74107 2.88237C1.50031 2.93121 1.27537 3.03885 1.08629 3.19569C0.89721 3.35254 0.749865 3.55372 0.657383 3.78131C0.180539 4.95268 -0.0406299 6.21239 0.00867464 7.47614C0.0579792 8.73989 0.37662 9.97854 0.943277 11.1092C1.50993 12.2399 2.31154 13.2365 3.29445 14.0323C4.27736 14.8282 5.41891 15.4049 6.64272 15.724C8.4972 16.192 10.4522 16.0615 12.228 15.3513C12.4558 15.2589 12.6571 15.1115 12.814 14.9223C12.9709 14.7331 13.0785 14.508 13.1272 14.2671C13.1759 14.0262 13.1643 13.7769 13.0932 13.5417C13.0222 13.3064 12.894 13.0923 12.72 12.9186L10.3334 10.528Z" fill="#303D4E"/>
</svg>
