<svg width="16" height="16" viewBox="0 0 16 16" fill="none" xmlns="http://www.w3.org/2000/svg">
<g clip-path="url(#clip0)">
<path d="M7.99999 0C6.32088 0.00194086 4.7111 0.669824 3.52379 1.85713C2.33648 3.04444 1.6686 4.65422 1.66666 6.33333C1.66666 10.698 6.02532 14.6587 7.36066 15.7687C7.54019 15.9178 7.76625 15.9995 7.99966 15.9995C8.23306 15.9995 8.45912 15.9178 8.63866 15.7687C9.97199 14.6587 14.3333 10.6967 14.3333 6.33267C14.3312 4.65367 13.6632 3.04406 12.476 1.8569C11.2887 0.669732 9.67898 0.00194052 7.99999 0V0ZM7.99999 9.66667C7.34072 9.66667 6.69625 9.47117 6.14809 9.1049C5.59993 8.73863 5.17268 8.21803 4.92039 7.60894C4.6681 6.99986 4.60209 6.32964 4.73071 5.68303C4.85932 5.03643 5.17679 4.44249 5.64297 3.97631C6.10914 3.51014 6.70309 3.19267 7.34969 3.06405C7.99629 2.93543 8.66651 3.00144 9.2756 3.25373C9.88469 3.50603 10.4053 3.93327 10.7716 4.48143C11.1378 5.0296 11.3333 5.67406 11.3333 6.33333C11.3333 6.77107 11.2471 7.20453 11.0796 7.60894C10.9121 8.01336 10.6665 8.38083 10.357 8.69036C10.0475 8.99988 9.68002 9.24542 9.2756 9.41293C8.87118 9.58045 8.43773 9.66667 7.99999 9.66667V9.66667Z" fill="#303D4E"/>
</g>
<defs>
<clipPath id="clip0">
<rect width="16" height="16" fill="white"/>
</clipPath>
</defs>
</svg>
