<?xml version="1.0" encoding="utf-8"?>
<!-- Generator: Adobe Illustrator 18.0.0, SVG Export Plug-In . SVG Version: 6.00 Build 0)  -->
<!DOCTYPE svg PUBLIC "-//W3C//DTD SVG 1.1//EN" "http://www.w3.org/Graphics/SVG/1.1/DTD/svg11.dtd">
<svg version="1.1" id="Layer_1" xmlns="http://www.w3.org/2000/svg" xmlns:xlink="http://www.w3.org/1999/xlink" x="0px" y="0px"
	 viewBox="0 0 48 48" enable-background="new 0 0 48 48" xml:space="preserve">
<g>
	<path fill="#216869" d="M24,0C10.7,0,0,10.8,0,24s10.7,24,24,24s24-10.7,24-24S37.3,0,24,0z M24,44.1c-11,0-20-9-20-20s9-20,20-20
		s20,9,20,20S35,44.1,24,44.1z"/>
	<g>
		<path fill="#1FC36A" d="M22.8,31.9c-1.7,0-2.6,0.9-2.6,2.7c0,0.9,0.2,1.5,0.7,2s1.1,0.7,1.9,0.7c0.8,0,1.5-0.2,1.9-0.7
			s0.7-1.1,0.7-2c0-0.8-0.2-1.5-0.7-2S23.6,31.9,22.8,31.9z"/>
		<path fill="#1FC36A" d="M29.3,12.4c-1.3-1.1-3.2-1.7-5.5-1.7c-2.3,0-4.4,0.5-6.5,1.4c-1.1,0.5-0.6,1.7-0.6,1.7l0.5,1
			c0,0,0.5,0.9,1.7,0.5c0,0,0,0,0,0c0.5-0.2,1-0.4,1.5-0.6c0.9-0.3,2-0.5,3.1-0.5c1.2,0,2.2,0.3,2.8,0.8s1,1.3,1,2.3
			c0,0.8-0.2,1.6-0.6,2.2s-1.3,1.5-2.7,2.6c-1.2,0.9-2,1.8-2.5,2.7c-0.5,0.9-0.7,1.9-0.7,3.2c0,0.9,1.1,1.1,1.1,1.1h0.7
			c0,0,1.4,0,1.6-1.2c0,0,0,0,0,0c0-0.8,0.2-1.4,0.5-1.8c0.4-0.6,1.1-1.3,2.2-2.1c1.3-1,2.2-1.8,2.7-2.4s0.9-1.3,1.2-2
			s0.4-1.5,0.4-2.3C31.4,15.1,30.7,13.5,29.3,12.4z"/>
	</g>
</g>
</svg>
