<svg width="20" height="20" viewBox="0 0 20 20" fill="none" xmlns="http://www.w3.org/2000/svg">
<g clip-path="url(#clip0)">
<path d="M17.0832 7.49993C17.0832 7.0579 16.9076 6.63397 16.595 6.32141C16.2825 6.00885 15.8585 5.83326 15.4165 5.83326H12.7082C12.6529 5.83326 12.5999 5.85521 12.5609 5.89428C12.5218 5.93335 12.4998 5.98634 12.4998 6.04159V7.29159C12.4998 7.34685 12.5218 7.39984 12.5609 7.43891C12.5999 7.47798 12.6529 7.49993 12.7082 7.49993H14.9998C15.1103 7.49993 15.2163 7.54382 15.2945 7.62196C15.3726 7.7001 15.4165 7.80609 15.4165 7.91659V16.9166C15.4165 17.0271 15.3726 17.1331 15.2945 17.2112C15.2163 17.2894 15.1103 17.3333 14.9998 17.3333H4.99984C4.88933 17.3333 4.78335 17.2894 4.70521 17.2112C4.62707 17.1331 4.58317 17.0271 4.58317 16.9166V7.91659C4.58317 7.80609 4.62707 7.7001 4.70521 7.62196C4.78335 7.54382 4.88933 7.49993 4.99984 7.49993H7.2915C7.31893 7.49993 7.34609 7.49451 7.37142 7.48399C7.39675 7.47347 7.41976 7.45805 7.43911 7.43861C7.45847 7.41918 7.4738 7.39611 7.48422 7.37074C7.49464 7.34537 7.49995 7.31819 7.49984 7.29076V6.04076C7.49973 6.01333 7.4942 5.98619 7.48358 5.9609C7.47296 5.93561 7.45745 5.91267 7.43794 5.89339C7.41842 5.87411 7.3953 5.85888 7.36988 5.84856C7.34447 5.83824 7.31727 5.83304 7.28984 5.83326H4.58317C4.14114 5.83326 3.71722 6.00885 3.40466 6.32141C3.0921 6.63397 2.9165 7.0579 2.9165 7.49993V17.3333C2.9165 17.7753 3.0921 18.1992 3.40466 18.5118C3.71722 18.8243 4.14114 18.9999 4.58317 18.9999H15.4165C15.8585 18.9999 16.2825 18.8243 16.595 18.5118C16.9076 18.1992 17.0832 17.7753 17.0832 17.3333V7.49993Z" fill="#8596AD"/>
<path d="M8.75017 9.16659C8.75017 9.49811 8.88186 9.81605 9.11628 10.0505C9.3507 10.2849 9.66865 10.4166 10.0002 10.4166C10.3317 10.4166 10.6496 10.2849 10.8841 10.0505C11.1185 9.81605 11.2502 9.49811 11.2502 9.16659V4.79076C11.2502 4.7355 11.2721 4.68251 11.3112 4.64344C11.3503 4.60437 11.4032 4.58242 11.4585 4.58242H12.9168C13.0811 4.58124 13.2414 4.53152 13.3775 4.43951C13.5136 4.3475 13.6195 4.2173 13.6819 4.06529C13.7442 3.91327 13.7602 3.74622 13.7279 3.58514C13.6956 3.42405 13.6163 3.27611 13.5002 3.15992L10.5835 0.243256C10.4272 0.0870304 10.2153 -0.000732422 9.99433 -0.000732422C9.77336 -0.000732422 9.56144 0.0870304 9.40517 0.243256L6.4885 3.15992C6.37135 3.27677 6.29163 3.42585 6.25951 3.58817C6.22738 3.75049 6.24431 3.91869 6.30813 4.07136C6.37195 4.22402 6.47977 4.35423 6.61785 4.44539C6.75594 4.53656 6.91804 4.58455 7.0835 4.58326H8.54183C8.59709 4.58326 8.65008 4.60521 8.68915 4.64428C8.72822 4.68334 8.75017 4.73634 8.75017 4.79159V9.16659Z" fill="#8596AD"/>
</g>
<defs>
<clipPath id="clip0">
<rect width="20" height="20" fill="white"/>
</clipPath>
</defs>
</svg>
