<?xml version="1.0" encoding="utf-8"?>
<!-- Generator: Adobe Illustrator 24.0.2, SVG Export Plug-In . SVG Version: 6.00 Build 0)  -->
<svg version="1.1" id="Layer_1" xmlns="http://www.w3.org/2000/svg" xmlns:xlink="http://www.w3.org/1999/xlink" x="0px" y="0px"
	 viewBox="0 0 20 20" style="enable-background:new 0 0 20 20;" xml:space="preserve">
<style type="text/css">
	.st0{fill-rule:evenodd;clip-rule:evenodd;fill:#FFFFFF;}
</style>
<path class="st0" d="M16,18c-1.1,0-2-0.9-2-2s0.9-2,2-2s2,0.9,2,2S17.1,18,16,18 M4,12c-1.1,0-2-0.9-2-2s0.9-2,2-2s2,0.9,2,2
	S5.1,12,4,12 M16,2c1.1,0,2,0.9,2,2s-0.9,2-2,2s-2-0.9-2-2C14,2.9,14.9,2,16,2 M16,12c-1.2,0-2.3,0.5-3,1.4l-5.1-2.5
	C8,10.6,8,10.3,8,10c0-0.3,0-0.6-0.1-0.8L13,6.6C13.8,7.5,14.8,8,16,8c2.2,0,4-1.8,4-4s-1.8-4-4-4s-4,1.8-4,4c0,0.3,0,0.6,0.1,0.8
	L7,7.4C6.2,6.5,5.2,6,4,6c-2.2,0-4,1.8-4,4s1.8,4,4,4c1.2,0,2.3-0.5,3-1.4l5.1,2.5C12,15.4,12,15.7,12,16c0,2.2,1.8,4,4,4s4-1.8,4-4
	S18.2,12,16,12"/>
</svg>
