<svg width="16" height="16" viewBox="0 0 16 16" fill="none" xmlns="http://www.w3.org/2000/svg">
<g clip-path="url(#clip0)">
<path d="M12.9331 7.2753C12.8999 7.25388 12.8602 7.24487 12.8211 7.24988C12.7819 7.25488 12.7458 7.27357 12.7191 7.30264C12.1284 7.96752 11.3057 8.38114 10.4197 8.45863C9.58353 8.52191 8.75469 8.26367 8.1024 7.73663C8.07292 7.71322 8.03638 7.70047 7.99874 7.70047C7.96109 7.70047 7.92455 7.71322 7.89507 7.73663C7.31752 8.2097 6.59429 8.46875 5.84774 8.46997C5.7604 8.46997 5.67174 8.46597 5.58107 8.45863C4.69133 8.38233 3.86477 7.96762 3.27174 7.29997C3.24534 7.27091 3.20953 7.2521 3.17063 7.24686C3.13172 7.24161 3.09222 7.25027 3.05907 7.2713C2.59951 7.57523 2.05549 7.72576 1.50507 7.7013C1.48287 7.70068 1.46077 7.70448 1.44006 7.71249C1.41935 7.7205 1.40044 7.73254 1.38443 7.74793C1.36842 7.76332 1.35563 7.78174 1.34682 7.80212C1.338 7.8225 1.33333 7.84443 1.33307 7.86664V14.248C1.33307 14.5132 1.43843 14.7675 1.62596 14.9551C1.8135 15.1426 2.06785 15.248 2.33307 15.248H13.6664C13.9316 15.248 14.186 15.1426 14.3735 14.9551C14.561 14.7675 14.6664 14.5132 14.6664 14.248V7.87464C14.6663 7.85191 14.6617 7.82943 14.6526 7.80858C14.6436 7.78772 14.6304 7.76892 14.6139 7.75332C14.5974 7.73773 14.5778 7.72566 14.5565 7.71787C14.5351 7.71007 14.5124 7.7067 14.4897 7.70797C13.9378 7.73551 13.3917 7.58373 12.9331 7.2753ZM9.99973 10.1573C10.0034 10.0901 10.0334 10.027 10.0834 9.98194C10.1334 9.93685 10.1992 9.91337 10.2664 9.91664H12.3997C12.467 9.91337 12.5328 9.93685 12.5827 9.98194C12.6327 10.027 12.6628 10.0901 12.6664 10.1573V13.6806C12.6664 13.769 12.6313 13.8538 12.5688 13.9163C12.5063 13.9789 12.4215 14.014 12.3331 14.014H10.3331C10.2447 14.014 10.1599 13.9789 10.0974 13.9163C10.0349 13.8538 9.99973 13.769 9.99973 13.6806V10.1573ZM3.6664 10.1386C3.67035 10.0761 3.69885 10.0177 3.74568 9.97614C3.7925 9.93456 3.85387 9.91317 3.9164 9.91664H7.41374C7.47627 9.91317 7.53763 9.93456 7.58446 9.97614C7.63129 10.0177 7.65979 10.0761 7.66374 10.1386V12.3613C7.65979 12.4238 7.63129 12.4822 7.58446 12.5238C7.53763 12.5654 7.47627 12.5868 7.41374 12.5833H3.91507C3.85254 12.5868 3.79117 12.5654 3.74434 12.5238C3.69751 12.4822 3.66902 12.4238 3.66507 12.3613L3.6664 10.1386Z" fill="#303D4E"/>
<path d="M14.5256 0.75H12.4236C12.3977 0.750103 12.3723 0.756172 12.3491 0.767735C12.326 0.779298 12.3059 0.796043 12.2903 0.816667C12.2748 0.838045 12.2646 0.862818 12.2607 0.888913C12.2568 0.915009 12.2591 0.94167 12.2676 0.966667L13.3063 4.092C13.3234 4.14294 13.3324 4.19626 13.3329 4.25C13.3329 5.684 13.3329 6.108 13.3329 6.244C13.3325 6.27105 13.3387 6.2978 13.3509 6.32195C13.3631 6.3461 13.3809 6.36693 13.4029 6.38267C13.614 6.5486 13.8652 6.65583 14.1311 6.69353C14.3969 6.73122 14.668 6.69804 14.9169 6.59733C15.2356 6.45731 15.5073 6.22842 15.6993 5.93804C15.8913 5.64766 15.9956 5.3081 15.9996 4.96V4.32933C15.9993 4.3091 15.9957 4.28905 15.9889 4.27L14.7329 0.974667C14.6769 0.828667 14.5843 0.75 14.5256 0.75Z" fill="#303D4E"/>
<path d="M12.3013 6.20869C12.3213 6.18068 12.3321 6.1471 12.332 6.11269V4.35802C12.3322 4.3401 12.3292 4.32228 12.3233 4.30535L11.176 0.866686C11.165 0.833512 11.1437 0.804653 11.1154 0.784194C11.087 0.763735 11.053 0.752712 11.018 0.752686H8.66667C8.62245 0.75268 8.58002 0.770176 8.54867 0.801352C8.51773 0.832871 8.50028 0.875191 8.5 0.919352V6.68335C8.71408 6.96099 8.99612 7.17876 9.31889 7.31562C9.64166 7.45248 9.99427 7.50382 10.3427 7.46469C10.7434 7.41872 11.1282 7.28163 11.4677 7.06392C11.8072 6.8462 12.0924 6.55365 12.3013 6.20869V6.20869Z" fill="#303D4E"/>
<path d="M7.49977 6.68067V0.916667C7.49977 0.872464 7.48221 0.830072 7.45096 0.798816C7.4197 0.76756 7.37731 0.75 7.33311 0.75H4.97911C4.94414 0.750027 4.91007 0.761049 4.88171 0.781508C4.85336 0.801967 4.83216 0.830826 4.82111 0.864L3.67377 4.30533C3.66788 4.32226 3.66495 4.34008 3.66511 4.358V6.10867C3.66511 6.14297 3.67558 6.17646 3.69511 6.20467C3.90476 6.55189 4.19172 6.84604 4.53363 7.06424C4.87555 7.28243 5.26321 7.41878 5.66644 7.46267C6.01357 7.50204 6.36497 7.45069 6.68631 7.31362C7.00765 7.17655 7.28794 6.95846 7.49977 6.68067V6.68067Z" fill="#303D4E"/>
<path d="M2.66667 6.25002V4.25002C2.66678 4.19635 2.67533 4.14303 2.692 4.09202L3.73333 0.969352C3.7418 0.944356 3.74416 0.917695 3.74022 0.891599C3.73628 0.865503 3.72614 0.840731 3.71067 0.819352C3.69514 0.798653 3.67501 0.781852 3.65187 0.770281C3.62873 0.75871 3.60321 0.752686 3.57733 0.752686H1.474C1.41533 0.752686 1.32267 0.831352 1.26733 0.977352L0.012 4.27002C0.00472791 4.28899 0.000672234 4.30904 0 4.32935L0 4.96002C0.00421629 5.3074 0.108534 5.64619 0.300447 5.93577C0.49236 6.22536 0.763723 6.45344 1.082 6.59269C1.34683 6.71892 1.64605 6.75376 1.93281 6.69176C2.21956 6.62975 2.47765 6.47439 2.66667 6.25002Z" fill="#303D4E"/>
</g>
<defs>
<clipPath id="clip0">
<rect width="16" height="16" fill="white"/>
</clipPath>
</defs>
</svg>
