<svg width="23" height="24" viewBox="0 0 23 24" fill="none" xmlns="http://www.w3.org/2000/svg">
<path d="M9.01905 11.567C9.49018 11.567 9.87209 11.1851 9.87209 10.714C9.87209 10.2429 9.49018 9.86096 9.01905 9.86096C8.54793 9.86096 8.16602 10.2429 8.16602 10.714C8.16602 11.1851 8.54793 11.567 9.01905 11.567Z" fill="#303D4E"/>
<path d="M14.1382 11.567C14.6093 11.567 14.9912 11.1851 14.9912 10.714C14.9912 10.2429 14.6093 9.86096 14.1382 9.86096C13.6671 9.86096 13.2852 10.2429 13.2852 10.714C13.2852 11.1851 13.6671 11.567 14.1382 11.567Z" fill="#303D4E"/>
<path d="M17.5534 11.628C17.4682 11.5904 17.3976 11.526 17.3525 11.4445C17.3074 11.363 17.2901 11.269 17.3035 11.1768C17.3816 10.6401 17.322 10.0923 17.1303 9.58492C16.9385 9.07757 16.6209 8.6273 16.2073 8.27644C16.1602 8.23638 16.1224 8.18656 16.0965 8.13045C16.0706 8.07433 16.0572 8.01324 16.0572 7.95143V6.75035C16.0571 6.71559 16.0486 6.68138 16.0323 6.65069C16.016 6.62 15.9924 6.59376 15.9636 6.57425C15.9349 6.55474 15.9018 6.54256 15.8673 6.53876C15.8327 6.53495 15.7978 6.53965 15.7654 6.55244L12.3482 7.89598C11.8703 8.08467 11.3403 8.09376 10.8562 7.92157L7.38433 6.69149C7.35223 6.67998 7.31783 6.67638 7.28404 6.68097C7.25025 6.68557 7.21806 6.69824 7.1902 6.7179C7.16234 6.73756 7.13962 6.76364 7.12397 6.79394C7.10831 6.82423 7.10018 6.85785 7.10027 6.89195V7.95228C7.10029 8.0141 7.08687 8.07518 7.06095 8.1313C7.03503 8.18742 6.99721 8.23723 6.95013 8.27729C6.59581 8.57737 6.31119 8.95111 6.11613 9.37247C5.92107 9.79383 5.82025 10.2527 5.82071 10.717C5.82053 10.8709 5.83165 11.0245 5.85397 11.1768C5.86744 11.2692 5.8502 11.3635 5.80489 11.4452C5.75958 11.5268 5.68872 11.5914 5.60318 11.6289C5.03415 11.8782 4.5499 12.2876 4.20942 12.8073C3.86894 13.327 3.68693 13.9344 3.68555 14.5557V16.475C3.68675 17.5129 4.01656 18.5237 4.62771 19.3626C5.23885 20.2015 6.09993 20.8253 7.08747 21.1445C7.12972 21.1582 7.17519 21.1584 7.21753 21.145C7.25986 21.1315 7.29696 21.1053 7.32363 21.0697C7.35031 21.0342 7.36524 20.9913 7.36633 20.9469C7.36742 20.9025 7.35463 20.8589 7.32973 20.8221C6.76033 19.9792 6.45666 18.985 6.45793 17.9678C6.45793 17.8547 6.50286 17.7462 6.58285 17.6662C6.66284 17.5862 6.77133 17.5413 6.88445 17.5413C6.99757 17.5413 7.10605 17.5862 7.18604 17.6662C7.26603 17.7462 7.31097 17.8547 7.31097 17.9678C7.31097 19.099 7.76034 20.1839 8.56022 20.9838C9.3601 21.7837 10.445 22.233 11.5762 22.233C12.7074 22.233 13.7922 21.7837 14.5921 20.9838C15.392 20.1839 15.8414 19.099 15.8414 17.9678C15.8414 17.8547 15.8863 17.7462 15.9663 17.6662C16.0463 17.5862 16.1548 17.5413 16.2679 17.5413C16.381 17.5413 16.4895 17.5862 16.5695 17.6662C16.6495 17.7462 16.6944 17.8547 16.6944 17.9678C16.6957 18.985 16.392 19.9792 15.8226 20.8221C15.7977 20.8589 15.7849 20.9025 15.786 20.9469C15.7871 20.9913 15.802 21.0342 15.8287 21.0697C15.8554 21.1053 15.8925 21.1315 15.9348 21.145C15.9771 21.1584 16.0226 21.1582 16.0649 21.1445C17.0524 20.8253 17.9135 20.2015 18.5246 19.3626C19.1358 18.5237 19.4656 17.5129 19.4668 16.475V14.5557C19.4659 13.9347 19.2846 13.3274 18.9449 12.8077C18.6052 12.2879 18.1218 11.8781 17.5534 11.628ZM9.01705 12.6338C8.63744 12.6338 8.26635 12.5212 7.95072 12.3103C7.63509 12.0994 7.38908 11.7996 7.24381 11.4489C7.09854 11.0982 7.06053 10.7123 7.13459 10.34C7.20865 9.96766 7.39144 9.62567 7.65987 9.35725C7.92829 9.08882 8.27029 8.90602 8.6426 8.83196C9.01492 8.7579 9.40083 8.79591 9.75155 8.94118C10.1023 9.08646 10.402 9.33246 10.6129 9.6481C10.8238 9.96373 10.9364 10.3348 10.9364 10.7144C10.9357 11.2233 10.7333 11.7111 10.3735 12.0709C10.0137 12.4307 9.52588 12.6331 9.01705 12.6338ZM12.5759 13.7717L12.0351 14.5642C11.9812 14.6348 11.9118 14.6919 11.8322 14.7313C11.7526 14.7707 11.665 14.7911 11.5762 14.7911C11.4874 14.7911 11.3998 14.7707 11.3202 14.7313C11.2406 14.6919 11.1711 14.6348 11.1172 14.5642L10.5773 13.7726C10.5608 13.7485 10.5494 13.7214 10.5438 13.6928C10.5383 13.6642 10.5386 13.6348 10.5448 13.6063C10.5511 13.5779 10.5631 13.551 10.5801 13.5274C10.5971 13.5037 10.6188 13.4838 10.6438 13.4689C10.9316 13.2971 11.1906 13.0812 11.4115 12.8291C11.4315 12.8063 11.4562 12.788 11.4839 12.7754C11.5115 12.7629 11.5415 12.7564 11.5719 12.7564C11.6023 12.7564 11.6323 12.7629 11.6599 12.7754C11.6876 12.788 11.7123 12.8063 11.7323 12.8291C11.9534 13.081 12.2124 13.2968 12.5 13.4689C12.525 13.4838 12.5467 13.5037 12.5637 13.5273C12.5807 13.551 12.5928 13.5778 12.5991 13.6062C12.6054 13.6346 12.6058 13.6641 12.6004 13.6927C12.5949 13.7213 12.5837 13.7485 12.5674 13.7726L12.5759 13.7717ZM14.1353 12.6338C13.7557 12.6338 13.3846 12.5212 13.069 12.3103C12.7533 12.0994 12.5073 11.7996 12.3621 11.4489C12.2168 11.0982 12.1788 10.7123 12.2528 10.34C12.3269 9.96766 12.5097 9.62567 12.7781 9.35725C13.0465 9.08882 13.3885 8.90602 13.7608 8.83196C14.1332 8.7579 14.5191 8.79591 14.8698 8.94118C15.2205 9.08646 15.5203 9.33246 15.7312 9.6481C15.9421 9.96373 16.0546 10.3348 16.0546 10.7144C16.054 11.2233 15.8515 11.7111 15.4917 12.0709C15.1319 12.4307 14.6441 12.6331 14.1353 12.6338Z" fill="#303D4E"/>
<path d="M5.39173 8.1014C5.61797 8.1014 5.83495 8.01153 5.99492 7.85155C6.1549 7.69158 6.24477 7.4746 6.24477 7.24836V5.68389C6.24515 5.6503 6.25356 5.61729 6.26929 5.58761C6.28502 5.55794 6.30762 5.53245 6.33519 5.51328C6.36305 5.49347 6.39526 5.48066 6.42911 5.47591C6.46296 5.47116 6.49745 5.47461 6.52969 5.48598L11.1404 7.11699C11.4309 7.22071 11.7491 7.21555 12.0361 7.10249L17.1987 5.0714C17.3194 5.02498 17.4231 4.94307 17.4964 4.83647C17.5696 4.72987 17.6088 4.60359 17.6088 4.47428C17.6088 4.34496 17.5696 4.21868 17.4964 4.11208C17.4231 4.00548 17.3194 3.92357 17.1987 3.87715L12.0284 1.84947C11.7413 1.73687 11.4233 1.73172 11.1327 1.83497L4.8202 4.0742C4.73715 4.10363 4.66525 4.15805 4.61438 4.23C4.56352 4.30194 4.53618 4.38787 4.53613 4.47598V7.24836C4.53613 7.3606 4.55828 7.47174 4.60131 7.5754C4.64434 7.67906 4.7074 7.77321 4.78689 7.85246C4.86637 7.9317 4.96071 7.99449 5.0645 8.0372C5.16829 8.07992 5.27949 8.10174 5.39173 8.1014Z" fill="#303D4E"/>
</svg>